<mxfile host="app.diagrams.net" modified="2023-12-12T14:47:01.478Z" agent="Mozilla/5.0 (Windows NT 10.0; Win64; x64) AppleWebKit/537.36 (KHTML, like Gecko) Chrome/118.0.5993.731 YaBrowser/23.11.1.731 Yowser/2.5 Safari/537.36" etag="A4bMhDrYTdrnP82kw1zm" version="22.1.7" type="device">
  <diagram id="RIsx4OWrCgGug_Piqi56" name="Страница — 1">
    <mxGraphModel dx="1524" dy="886" grid="1" gridSize="10" guides="1" tooltips="1" connect="1" arrows="1" fold="1" page="1" pageScale="1" pageWidth="827" pageHeight="1169" math="0" shadow="0">
      <root>
        <mxCell id="0" />
        <mxCell id="1" parent="0" />
        <mxCell id="4a9bZZS92-BhcnEdYSsW-15" value="" style="ellipse;fillColor=strokeColor;html=1;" parent="1" vertex="1">
          <mxGeometry x="371.5" y="100" width="15" height="15" as="geometry" />
        </mxCell>
        <mxCell id="4a9bZZS92-BhcnEdYSsW-21" value="Пользователь" style="text;html=1;strokeColor=default;fillColor=none;align=center;verticalAlign=middle;whiteSpace=wrap;rounded=0;" parent="1" vertex="1">
          <mxGeometry x="80" y="40" width="200" height="40" as="geometry" />
        </mxCell>
        <mxCell id="4a9bZZS92-BhcnEdYSsW-22" value="Система" style="text;html=1;strokeColor=default;fillColor=none;align=center;verticalAlign=middle;whiteSpace=wrap;rounded=0;" parent="1" vertex="1">
          <mxGeometry x="280" y="40" width="200" height="40" as="geometry" />
        </mxCell>
        <mxCell id="4a9bZZS92-BhcnEdYSsW-24" value="" style="endArrow=classic;html=1;rounded=0;exitX=0.5;exitY=1;exitDx=0;exitDy=0;" parent="1" source="4a9bZZS92-BhcnEdYSsW-15" edge="1">
          <mxGeometry width="50" height="50" relative="1" as="geometry">
            <mxPoint x="339" y="350" as="sourcePoint" />
            <mxPoint x="379" y="160" as="targetPoint" />
          </mxGeometry>
        </mxCell>
        <mxCell id="4a9bZZS92-BhcnEdYSsW-26" value="Вывод списка пользователей" style="text;html=1;strokeColor=default;fillColor=none;align=center;verticalAlign=middle;whiteSpace=wrap;rounded=1;" parent="1" vertex="1">
          <mxGeometry x="318.5" y="160" width="121" height="50" as="geometry" />
        </mxCell>
        <mxCell id="4a9bZZS92-BhcnEdYSsW-27" value="" style="endArrow=classic;html=1;rounded=0;exitX=0;exitY=0.5;exitDx=0;exitDy=0;entryX=1;entryY=0.5;entryDx=0;entryDy=0;" parent="1" source="4a9bZZS92-BhcnEdYSsW-26" target="4a9bZZS92-BhcnEdYSsW-28" edge="1">
          <mxGeometry width="50" height="50" relative="1" as="geometry">
            <mxPoint x="320" y="350" as="sourcePoint" />
            <mxPoint x="240" y="185" as="targetPoint" />
          </mxGeometry>
        </mxCell>
        <mxCell id="4a9bZZS92-BhcnEdYSsW-28" value="Выбор пользователя для отправки сообщения" style="text;html=1;strokeColor=default;fillColor=none;align=center;verticalAlign=middle;whiteSpace=wrap;rounded=1;" parent="1" vertex="1">
          <mxGeometry x="119.5" y="160" width="121" height="50" as="geometry" />
        </mxCell>
        <mxCell id="4a9bZZS92-BhcnEdYSsW-29" value="" style="endArrow=classic;html=1;rounded=0;exitX=0.75;exitY=1;exitDx=0;exitDy=0;entryX=0.5;entryY=0;entryDx=0;entryDy=0;edgeStyle=orthogonalEdgeStyle;" parent="1" source="4a9bZZS92-BhcnEdYSsW-28" target="4a9bZZS92-BhcnEdYSsW-30" edge="1">
          <mxGeometry width="50" height="50" relative="1" as="geometry">
            <mxPoint x="310" y="195" as="sourcePoint" />
            <mxPoint x="270" y="280" as="targetPoint" />
          </mxGeometry>
        </mxCell>
        <mxCell id="4a9bZZS92-BhcnEdYSsW-30" value="Вывод окна для заполнения сообщения" style="text;html=1;strokeColor=default;fillColor=none;align=center;verticalAlign=middle;whiteSpace=wrap;rounded=1;" parent="1" vertex="1">
          <mxGeometry x="318.5" y="250" width="121" height="50" as="geometry" />
        </mxCell>
        <mxCell id="4a9bZZS92-BhcnEdYSsW-31" value="" style="endArrow=classic;html=1;rounded=0;exitX=0.5;exitY=1;exitDx=0;exitDy=0;entryX=1;entryY=0.5;entryDx=0;entryDy=0;" parent="1" source="4a9bZZS92-BhcnEdYSsW-30" target="2U2g50e5jTPGebCMxvRw-1" edge="1">
          <mxGeometry width="50" height="50" relative="1" as="geometry">
            <mxPoint x="383" y="450" as="sourcePoint" />
            <mxPoint x="380" y="350" as="targetPoint" />
            <Array as="points">
              <mxPoint x="380" y="335" />
            </Array>
          </mxGeometry>
        </mxCell>
        <mxCell id="4a9bZZS92-BhcnEdYSsW-41" value="" style="endArrow=none;dashed=1;html=1;dashPattern=1 3;strokeWidth=2;rounded=0;entryX=0;entryY=1;entryDx=0;entryDy=0;" parent="1" target="4a9bZZS92-BhcnEdYSsW-22" edge="1">
          <mxGeometry width="50" height="50" relative="1" as="geometry">
            <mxPoint x="280" y="520" as="sourcePoint" />
            <mxPoint x="370" y="300" as="targetPoint" />
          </mxGeometry>
        </mxCell>
        <mxCell id="4a9bZZS92-BhcnEdYSsW-43" value="" style="endArrow=none;html=1;rounded=0;entryX=0;entryY=1;entryDx=0;entryDy=0;" parent="1" target="4a9bZZS92-BhcnEdYSsW-21" edge="1">
          <mxGeometry width="50" height="50" relative="1" as="geometry">
            <mxPoint x="80" y="520" as="sourcePoint" />
            <mxPoint x="370" y="300" as="targetPoint" />
          </mxGeometry>
        </mxCell>
        <mxCell id="4a9bZZS92-BhcnEdYSsW-60" value="" style="endArrow=none;html=1;rounded=0;entryX=0;entryY=1;entryDx=0;entryDy=0;" parent="1" edge="1">
          <mxGeometry width="50" height="50" relative="1" as="geometry">
            <mxPoint x="480" y="520" as="sourcePoint" />
            <mxPoint x="480" y="80" as="targetPoint" />
          </mxGeometry>
        </mxCell>
        <mxCell id="4a9bZZS92-BhcnEdYSsW-95" value="" style="endArrow=none;html=1;rounded=0;" parent="1" edge="1">
          <mxGeometry width="50" height="50" relative="1" as="geometry">
            <mxPoint x="80" y="520" as="sourcePoint" />
            <mxPoint x="480" y="520" as="targetPoint" />
          </mxGeometry>
        </mxCell>
        <mxCell id="01D0WKEzNjMwUzCxD3XC-1" value="" style="ellipse;html=1;shape=endState;fillColor=strokeColor;" parent="1" vertex="1">
          <mxGeometry x="365" y="475" width="30" height="30" as="geometry" />
        </mxCell>
        <mxCell id="01D0WKEzNjMwUzCxD3XC-2" style="edgeStyle=orthogonalEdgeStyle;rounded=0;orthogonalLoop=1;jettySize=auto;html=1;exitX=0.5;exitY=1;exitDx=0;exitDy=0;" parent="1" target="01D0WKEzNjMwUzCxD3XC-1" edge="1">
          <mxGeometry relative="1" as="geometry">
            <mxPoint x="379.5" y="450" as="sourcePoint" />
            <mxPoint x="319" y="423" as="targetPoint" />
          </mxGeometry>
        </mxCell>
        <mxCell id="01D0WKEzNjMwUzCxD3XC-4" value="Отправка сообщений" style="shape=umlFrame;whiteSpace=wrap;html=1;pointerEvents=0;width=180;height=30;" parent="1" vertex="1">
          <mxGeometry x="39" width="481" height="560" as="geometry" />
        </mxCell>
        <mxCell id="2U2g50e5jTPGebCMxvRw-1" value="Ввод сообщение и отправка" style="text;html=1;strokeColor=default;fillColor=none;align=center;verticalAlign=middle;whiteSpace=wrap;rounded=1;" parent="1" vertex="1">
          <mxGeometry x="119.5" y="310" width="121" height="50" as="geometry" />
        </mxCell>
        <mxCell id="2U2g50e5jTPGebCMxvRw-2" value="" style="endArrow=classic;html=1;rounded=0;exitX=0.75;exitY=1;exitDx=0;exitDy=0;entryX=0;entryY=0.25;entryDx=0;entryDy=0;" parent="1" source="2U2g50e5jTPGebCMxvRw-1" target="2U2g50e5jTPGebCMxvRw-3" edge="1">
          <mxGeometry width="50" height="50" relative="1" as="geometry">
            <mxPoint x="219" y="420" as="sourcePoint" />
            <mxPoint x="180" y="410" as="targetPoint" />
            <Array as="points">
              <mxPoint x="210" y="413" />
            </Array>
          </mxGeometry>
        </mxCell>
        <mxCell id="2U2g50e5jTPGebCMxvRw-3" value="Сохранение сообщения в базе данных" style="text;html=1;strokeColor=default;fillColor=none;align=center;verticalAlign=middle;whiteSpace=wrap;rounded=1;" parent="1" vertex="1">
          <mxGeometry x="319" y="400" width="121" height="50" as="geometry" />
        </mxCell>
        <mxCell id="P0AUMv_GTVeGDAwspM5X-3" value="" style="rounded=0;whiteSpace=wrap;html=1;" parent="1" vertex="1">
          <mxGeometry x="310.5" y="423" width="8" height="20" as="geometry" />
        </mxCell>
        <mxCell id="P0AUMv_GTVeGDAwspM5X-4" value="" style="rounded=0;whiteSpace=wrap;html=1;" parent="1" vertex="1">
          <mxGeometry x="140" y="360" width="22" height="10" as="geometry" />
        </mxCell>
        <mxCell id="P0AUMv_GTVeGDAwspM5X-7" value="" style="endArrow=classic;html=1;rounded=0;exitX=0.5;exitY=1;exitDx=0;exitDy=0;fillColor=#0050ef;strokeColor=#001DBC;edgeStyle=orthogonalEdgeStyle;" parent="1" source="P0AUMv_GTVeGDAwspM5X-4" target="V-XD4Kh0ydEi16exZV9T-1" edge="1">
          <mxGeometry width="50" height="50" relative="1" as="geometry">
            <mxPoint x="219" y="230" as="sourcePoint" />
            <mxPoint x="151" y="452" as="targetPoint" />
          </mxGeometry>
        </mxCell>
        <mxCell id="V-XD4Kh0ydEi16exZV9T-1" value="&lt;u&gt;Текст сообщения&lt;/u&gt;:&amp;nbsp;string" style="rounded=0;whiteSpace=wrap;html=1;" parent="1" vertex="1">
          <mxGeometry x="96" y="420" width="110" height="45" as="geometry" />
        </mxCell>
        <mxCell id="V-XD4Kh0ydEi16exZV9T-2" value="" style="endArrow=classic;html=1;rounded=0;fillColor=#0050ef;strokeColor=#001DBC;edgeStyle=orthogonalEdgeStyle;entryX=0;entryY=0.5;entryDx=0;entryDy=0;" parent="1" source="V-XD4Kh0ydEi16exZV9T-1" target="P0AUMv_GTVeGDAwspM5X-3" edge="1">
          <mxGeometry width="50" height="50" relative="1" as="geometry">
            <mxPoint x="161" y="380" as="sourcePoint" />
            <mxPoint x="161" y="485" as="targetPoint" />
          </mxGeometry>
        </mxCell>
        <mxCell id="V-XD4Kh0ydEi16exZV9T-3" value="&lt;u&gt;Получатель (логин)&lt;/u&gt;:&amp;nbsp;string" style="rounded=0;whiteSpace=wrap;html=1;" parent="1" vertex="1">
          <mxGeometry x="106.5" y="250" width="89" height="50" as="geometry" />
        </mxCell>
        <mxCell id="V-XD4Kh0ydEi16exZV9T-4" value="" style="endArrow=classic;html=1;rounded=0;fillColor=#0050ef;strokeColor=#001DBC;edgeStyle=orthogonalEdgeStyle;exitX=0.5;exitY=1;exitDx=0;exitDy=0;entryX=0.5;entryY=0;entryDx=0;entryDy=0;" parent="1" source="V-XD4Kh0ydEi16exZV9T-5" target="V-XD4Kh0ydEi16exZV9T-3" edge="1">
          <mxGeometry width="50" height="50" relative="1" as="geometry">
            <mxPoint x="190.24" y="317" as="sourcePoint" />
            <mxPoint x="150" y="250" as="targetPoint" />
          </mxGeometry>
        </mxCell>
        <mxCell id="V-XD4Kh0ydEi16exZV9T-5" value="" style="rounded=0;whiteSpace=wrap;html=1;" parent="1" vertex="1">
          <mxGeometry x="140" y="210" width="22" height="10" as="geometry" />
        </mxCell>
        <mxCell id="V-XD4Kh0ydEi16exZV9T-7" value="" style="rounded=0;whiteSpace=wrap;html=1;" parent="1" vertex="1">
          <mxGeometry x="310.5" y="266.5" width="8" height="17" as="geometry" />
        </mxCell>
        <mxCell id="V-XD4Kh0ydEi16exZV9T-8" value="" style="endArrow=classic;html=1;rounded=0;fillColor=#0050ef;strokeColor=#001DBC;edgeStyle=orthogonalEdgeStyle;entryX=0;entryY=0.5;entryDx=0;entryDy=0;exitX=1;exitY=0.5;exitDx=0;exitDy=0;" parent="1" source="V-XD4Kh0ydEi16exZV9T-3" target="V-XD4Kh0ydEi16exZV9T-7" edge="1">
          <mxGeometry width="50" height="50" relative="1" as="geometry">
            <mxPoint x="202" y="515" as="sourcePoint" />
            <mxPoint x="320" y="515" as="targetPoint" />
          </mxGeometry>
        </mxCell>
      </root>
    </mxGraphModel>
  </diagram>
</mxfile>
